<?xml version="1.0" encoding="utf-8"?>
<!-- Generator: Adobe Illustrator 20.0.0, SVG Export Plug-In . SVG Version: 6.00 Build 0)  -->
<svg version="1.1" id="Layer_1" xmlns="http://www.w3.org/2000/svg" xmlns:xlink="http://www.w3.org/1999/xlink" x="0px" y="0px"
	 viewBox="0 0 251 30" style="enable-background:new 0 0 251 30;" xml:space="preserve">
<style type="text/css">
	.st0{fill:#FFFFFF;}
</style>
<g>
	<path class="st0" d="M116.9,1.3h-8.1v6.9h7.9v1.1h-7.9v7h8.3v1.1h-9.6V0.2h9.4V1.3z"/>
	<path class="st0" d="M133.5,0.2h1.7l-7.4,8.4l7.9,8.8h-1.7l-7-7.9l-7,7.9h-1.7l7.8-8.8l-7.4-8.4h1.7l6.6,7.4L133.5,0.2z"/>
	<path class="st0" d="M152.4,2.8c-2.2-1.1-4.1-1.7-6.2-1.7c-4.3,0-7.5,3.3-7.5,7.6c0,4.5,3.2,7.6,7.7,7.6c2,0,3.8-0.5,6.2-1.8V16
		c-2,1.1-4.1,1.6-6.1,1.6c-5.3,0-9.2-3.8-9.2-8.8c0-5.3,4.3-8.9,9.1-8.9c1.9,0,4,0.5,6.1,1.4V2.8z"/>
	<path class="st0" d="M169.8,17.4h-1.3V9.2h-11.5v8.2h-1.3V0.2h1.3v8h11.5v-8h1.3V17.4z"/>
	<path class="st0" d="M188.9,17.4h-1.4l-2.7-6h-8.4l-2.7,6h-1.4l8-17.4h0.7L188.9,17.4z M180.6,2.2l-3.7,8.1h7.4L180.6,2.2z"/>
	<path class="st0" d="M207,17.4h-1.1L192.7,2.3v15.1h-1.3V0.2h1.1l13.1,15.1V0.2h1.3V17.4z"/>
	<path class="st0" d="M225.8,2.9c-2.1-1.2-4.1-1.7-6.1-1.7c-4.4,0-7.6,3.2-7.6,7.6c0,3.9,2.6,7.6,8,7.6c2,0,3.4-0.4,4.7-1.1v-4.7
		h-3.6V9.6h5v6.6c-2.1,1-4.1,1.5-6.1,1.5c-5.4,0-9.4-3.8-9.4-8.9c0-5.1,3.9-8.8,9.3-8.8c2,0,3.5,0.4,5.9,1.5V2.9z"/>
	<path class="st0" d="M239.6,1.3h-8.1v6.9h7.9v1.1h-7.9v7h8.3v1.1h-9.6V0.2h9.4V1.3z"/>
</g>
<path class="st0" d="M36.2,8.7c0,0.5-0.1,1-0.2,1.4L35.1,9h-4.9l3.5,4.3c-0.8,0.5-1.8,0.7-2.9,0.7c-3.3,0-5.4-2.1-5.4-5.2
	s2.2-5.2,5.4-5.2C34,3.5,36.2,5.6,36.2,8.7 M40.3,6.4c-1-3.4-4.2-6.5-9.5-6.5c-6.5,0-9.8,4.7-9.8,8.8c0,4.4,3.5,8.8,9.8,8.8
	c0.1,0,0.2,0,0.3,0l3.2-3.9l2.5-2.9l3.3-4.1L40.3,6.4z"/>
<path class="st0" d="M9.6,4.5l2.8,6.7H7.1L9.6,4.5z M7,0.4L0.1,17.6h4.5l1.3-3.4h7.7l1.4,3.4h4.6L12,0.4H7z"/>
<path class="st0" d="M92.6,1.3c-2.2-0.9-3.9-1.3-5.8-1.3c-4,0-6.5,2-6.5,4.9c0,6.2,8.7,5.1,8.7,8c0,1-0.9,1.6-2.5,1.6
	c-1.9,0-3.4-0.6-5.9-2.2v3.7c1.7,0.9,3.2,1.7,6.2,1.7c3.8,0,6.6-1.9,6.6-5.2c0-6-8.7-5.3-8.7-7.9c0-0.9,1-1.4,2.5-1.4
	c1.5,0,2.9,0.4,5.4,1.5V1.3z M74.1,0.2h-4.3v17.2h4.3V0.2z M59.3,0.2v9.6c0,3.1-2.1,4.3-4.4,4.3c-2.5,0-4.3-1.5-4.3-4V0.2h-4.3v9.8
	c0,5.3,3.6,7.6,8.6,7.6c4.7,0,8.6-2,8.6-7.7V0.2H59.3z"/>
<path class="st0" d="M96.6,0.8c0.3,0,0.5,0.1,0.8,0.2c0.2,0.1,0.4,0.3,0.6,0.6C98,1.8,98.1,2,98.1,2.3c0,0.3-0.1,0.5-0.2,0.8
	s-0.3,0.4-0.6,0.5c-0.2,0.1-0.5,0.2-0.8,0.2c-0.3,0-0.5-0.1-0.8-0.2c-0.2-0.1-0.4-0.3-0.6-0.5c-0.1-0.2-0.2-0.5-0.2-0.8
	s0.1-0.5,0.2-0.8c0.1-0.2,0.3-0.4,0.6-0.5S96.3,0.8,96.6,0.8z M96.6,1c-0.3,0-0.6,0.1-0.9,0.4c-0.2,0.2-0.4,0.5-0.4,0.9
	c0,0.3,0.1,0.6,0.4,0.9c0.2,0.2,0.5,0.4,0.9,0.4c0.3,0,0.6-0.1,0.9-0.4c0.2-0.2,0.4-0.5,0.4-0.9s-0.1-0.6-0.4-0.9
	C97.2,1.2,96.9,1,96.6,1z M96.2,3.1H96V1.5h0.6c0.2,0,0.3,0,0.4,0c0.1,0,0.1,0.1,0.2,0.2c0,0.1,0.1,0.2,0.1,0.2c0,0.1,0,0.2-0.1,0.3
	c-0.1,0.1-0.2,0.1-0.3,0.1c0.1,0,0.1,0.1,0.2,0.1c0.1,0.1,0.1,0.2,0.2,0.3l0.2,0.3H97l-0.1-0.3c-0.1-0.2-0.2-0.3-0.2-0.4
	c-0.1-0.1-0.1-0.1-0.2-0.1h-0.2V3.1z M96.2,1.7v0.5h0.3c0.1,0,0.2,0,0.3-0.1C96.9,2.1,97,2,97,2c0-0.1,0-0.2-0.1-0.2
	c-0.1,0-0.2-0.1-0.3-0.1H96.2z"/>
<g>
	<defs>
		<polygon id="SVGID_1_" points="40.7,7 37.4,11.1 34.9,14 21.8,30 26.7,30 37.4,16.9 37.8,16.5 38.7,17.6 43.7,17.6 40.3,13.5 
			45.5,7 45.7,6.8 45.7,0.8 		"/>
	</defs>
	<linearGradient id="SVGID_2_" gradientUnits="userSpaceOnUse" x1="33.7674" y1="29.9805" x2="33.7674" y2="0.8356">
		<stop  offset="0" style="stop-color:#FFFFFF;stop-opacity:0"/>
		<stop  offset="0.6" style="stop-color:#FFFFFF"/>
	</linearGradient>
	<use xlink:href="#SVGID_1_"  style="overflow:visible;fill:url(#SVGID_2_);"/>
	<clipPath id="SVGID_3_">
		<use xlink:href="#SVGID_1_"  style="overflow:visible;"/>
	</clipPath>
</g>
</svg>
